<?xml version="1.0" encoding="UTF-8" standalone="no"?>
<!-- Generator: Adobe Illustrator 16.0.0, SVG Export Plug-In . SVG Version: 6.00 Build 0)  -->

<svg
   xmlns:dc="http://purl.org/dc/elements/1.1/"
   xmlns:cc="http://creativecommons.org/ns#"
   xmlns:rdf="http://www.w3.org/1999/02/22-rdf-syntax-ns#"
   xmlns:svg="http://www.w3.org/2000/svg"
   xmlns="http://www.w3.org/2000/svg"
   xmlns:sodipodi="http://sodipodi.sourceforge.net/DTD/sodipodi-0.dtd"
   xmlns:inkscape="http://www.inkscape.org/namespaces/inkscape"
   version="1.1"
   id="Layer_1"
   x="0px"
   y="0px"
   width="791.40002"
   height="250"
   viewBox="0 0 791.40002 250"
   enable-background="new 0 0 1224 792"
   xml:space="preserve"
   inkscape:version="0.91 r13725"
   sodipodi:docname="TSALogo.svg"><metadata
     id="metadata4078"><rdf:RDF><cc:Work
         rdf:about=""><dc:format>image/svg+xml</dc:format><dc:type
           rdf:resource="http://purl.org/dc/dcmitype/StillImage" /><dc:title></dc:title></cc:Work></rdf:RDF></metadata><defs
     id="defs4076" /><sodipodi:namedview
     pagecolor="#ffffff"
     bordercolor="#666666"
     borderopacity="1"
     objecttolerance="10"
     gridtolerance="10"
     guidetolerance="10"
     inkscape:pageopacity="0"
     inkscape:pageshadow="2"
     inkscape:window-width="1405"
     inkscape:window-height="858"
     id="namedview4074"
     showgrid="false"
     fit-margin-top="0"
     fit-margin-left="0"
     fit-margin-right="0"
     fit-margin-bottom="0"
     inkscape:zoom="0.82070707"
     inkscape:cx="394.70801"
     inkscape:cy="125.474"
     inkscape:window-x="0"
     inkscape:window-y="0"
     inkscape:window-maximized="0"
     inkscape:current-layer="Layer_1" /><g
     id="g3736"
     transform="translate(-217.29199,-271.474)"><g
       id="g3738"><g
         id="g3740"><path
           d="m 511.096,406.949 4.146,0 0,6.299 c 3.314,3.971 6.541,5.717 10.02,5.717 4.641,0 8.285,-3.482 8.285,-7.951 0,-8.367 -11.512,-10.029 -18.217,-16.738 -3.234,-3.229 -4.477,-6.633 -4.477,-10.029 0,-6.535 5.469,-12.836 14.086,-12.836 3.563,0 6.791,0.668 9.609,2.484 l 0,-2.652 4.137,0 0,13.506 -4.137,0 0,-5.391 c -2.078,-2.639 -5.221,-4.221 -8.617,-4.221 -5.549,0 -7.953,3.314 -7.953,7.125 0,7.785 11.35,8.945 18.473,16.07 3.145,3.154 4.219,5.967 4.219,10.029 0,8.451 -5.963,14.334 -14.908,14.334 -3.809,0 -6.791,-1.162 -10.52,-3.479 l 0,3.646 -4.146,0 0,-15.913 z"
           id="path3742"
           inkscape:connector-curvature="0"
           style="fill:#00578e" /><path
           d="m 555.174,398.414 c 0.502,-5.881 2.402,-8.777 6.955,-8.777 4.389,0 7.125,3.146 7.787,8.777 l -14.742,0 z m 22.869,3.397 c -1.328,-10.02 -6.801,-15.564 -15.412,-15.564 -9.527,0 -15.742,6.785 -15.742,17.311 0,9.691 6.383,19.307 18.145,19.307 4.727,0 7.367,-0.92 13.01,-4.398 l 0.574,-3.73 c -4.139,2.652 -7.953,3.982 -11.512,3.982 -7.379,0 -11.932,-6.961 -11.932,-16.906 l 22.869,0 z"
           id="path3744"
           inkscape:connector-curvature="0"
           style="fill:#00578e" /><path
           d="m 611.998,397.17 -2.402,0 c -0.91,-5.043 -4.557,-7.533 -8.285,-7.533 -5.549,0 -9.277,4.055 -9.277,12.924 0,10.188 3.896,15.662 11.104,15.662 5.631,0 8.945,-3.813 9.768,-3.813 0.668,0 1.162,1.492 1.162,2.066 0,1.41 -5.715,6.387 -13.498,6.387 -9.695,0 -17.07,-8.287 -17.07,-19.143 0,-10.197 6.873,-17.475 16.57,-17.475 2.904,0 5.053,0.492 8.867,2.148 l 0.66,-2.066 2.402,0 0,10.843 z"
           id="path3746"
           inkscape:connector-curvature="0"
           style="fill:#00578e" /><path
           d="m 617.91,387.238 13.844,0 0,23.857 c 0,4.475 2.393,7.127 6.291,7.127 2.32,0 5.307,-1.242 8.457,-3.563 l 0,-24.027 -6.137,0 0,-3.395 13.791,0 0,31.227 6.24,0 0,3.393 -13.895,0 0,-4.133 c -4.311,3.646 -8.377,5.139 -12.441,5.139 -6.123,0 -9.932,-3.482 -9.932,-10.607 l 0,-21.623 -6.219,0 0,-3.395 z"
           id="path3748"
           inkscape:connector-curvature="0"
           style="fill:#00578e" /><path
           d="m 664.494,418.465 6.207,0 0,-27.832 -6.207,0 0,-3.395 13.83,0 0,5.793 0.17,0 c 4.137,-5.139 6.217,-6.785 8.451,-6.785 2.066,0 3.889,0.992 5.883,3.309 -0.668,3.477 -1.744,6.293 -3.154,8.535 -1.984,-3.646 -3.145,-4.889 -5.465,-4.889 -2.238,0 -3.98,1.484 -5.885,4.137 l 0,21.127 6.219,0 0,3.393 -20.049,0 0,-3.393 z"
           id="path3750"
           inkscape:connector-curvature="0"
           style="fill:#00578e" /><path
           d="m 698.275,418.465 6.049,0 0,-27.832 -6.049,0 0,-3.395 13.664,0 0,31.227 5.891,0 0,3.393 -19.555,0 0,-3.393 z m 13.69,-41.721 c 0,2.49 -2.084,4.578 -4.582,4.578 -2.488,0 -4.584,-2.088 -4.584,-4.578 0,-2.494 2.096,-4.584 4.584,-4.584 2.498,0 4.582,2.09 4.582,4.584 z"
           id="path3752"
           inkscape:connector-curvature="0"
           style="fill:#00578e" /><path
           d="m 721.465,390.633 12.434,-12.84 0,9.445 9.695,0 0,3.395 -9.695,0 0,20.049 c 0,5.463 1.494,8.035 4.639,8.035 3.314,0 4.971,-2.654 5.799,-2.654 0.498,0 0.824,0.668 0.824,1.074 0,0.918 -3.061,5.727 -9.109,5.727 -6.301,0 -9.775,-4.066 -9.775,-11.525 l 0,-20.705 -4.812,0 z"
           id="path3754"
           inkscape:connector-curvature="0"
           style="fill:#00578e" /><path
           d="m 746.904,387.238 16.811,0 0,3.395 -4.385,0 8.281,22.201 8.617,-22.201 -4.061,0 0,-3.395 11.596,0 0,3.395 -4.139,0 -19.703,50.105 -6.457,0 9.176,-20.365 -11.18,-29.74 -4.557,0 0,-3.395 z"
           id="path3756"
           inkscape:connector-curvature="0"
           style="fill:#00578e" /></g><g
         id="g3758"><path
           d="m 534.468,469.959 -13.256,0 6.383,-18.223 0.166,0 6.707,18.223 z m -27.832,21.539 12.924,0 0,-4.137 -4.471,0 4.471,-13.256 16.568,0 4.723,13.256 -4.723,0 0,4.137 17.313,0 0,-4.137 -4.305,0 -17.49,-46.727 -4.219,0 -16.484,46.727 -4.307,0 0,4.137 z"
           id="path3760"
           inkscape:connector-curvature="0"
           style="fill:#00578e" /><path
           d="m 580.788,488.105 -3.313,0 c -8.199,0 -14.08,-3.898 -14.08,-14.5 0,-8.453 3.479,-13.344 9.277,-13.344 2.654,0 5.545,1.332 8.115,3.898 l 0,23.946 z m -6.131,-47.72 6.131,0 0,19.877 c -3.395,-2.893 -7.041,-4.387 -10.52,-4.387 -8.367,0 -15.408,8.035 -15.408,17.73 0,10.939 7.793,17.893 19.797,17.893 l 19.889,0 0,-3.393 -6.133,0 0,-51.115 -13.756,0 0,3.395 z"
           id="path3762"
           inkscape:connector-curvature="0"
           style="fill:#00578e" /><path
           d="m 596.487,488.105 6.133,0 0,-27.844 -6.133,0 0,-3.395 13.748,0 0,3.984 c 5.309,-2.824 9.287,-4.977 13.674,-4.977 3.971,0 7.211,2.152 8.535,5.799 3.564,-2.725 9.283,-5.799 13.92,-5.799 6.486,0 9.984,4.148 9.984,11.598 l 0,20.633 6.063,0 0,3.393 -19.525,0 0,-3.393 5.807,0 0,-18.396 c 0,-5.955 -2.076,-8.777 -6.391,-8.777 -2.57,0 -5.969,1.58 -9.029,3.725 l 0,23.449 6.053,0 0,3.393 -19.477,0 0,-3.393 5.797,0 0,-17.322 c 0,-5.873 -0.824,-9.852 -6.207,-9.852 -3.152,0 -5.307,1.328 -9.203,3.725 l 0,23.449 5.881,0 0,3.393 -19.629,0 0,-3.393 z"
           id="path3764"
           inkscape:connector-curvature="0"
           style="fill:#00578e" /><path
           d="m 665.679,488.105 6.049,0 0,-27.844 -6.049,0 0,-3.395 13.668,0 0,31.238 5.881,0 0,3.393 -19.549,0 0,-3.392 z m 13.689,-41.718 c 0,2.477 -2.082,4.574 -4.58,4.574 -2.484,0 -4.574,-2.098 -4.574,-4.574 0,-2.492 2.09,-4.582 4.574,-4.582 2.498,0 4.58,2.09 4.58,4.582 z"
           id="path3766"
           inkscape:connector-curvature="0"
           style="fill:#00578e" /><path
           d="m 688.706,488.105 6.297,0 0,-27.844 -6.297,0 0,-3.395 13.924,0 0,3.898 c 4.053,-2.977 8.201,-4.891 12.838,-4.891 5.467,0 9.529,3.48 9.529,10.115 l 0,22.115 6.125,0 0,3.393 -19.217,0 0,-3.393 5.469,0 0,-20.385 c 0,-4.717 -2.572,-7.207 -6.135,-7.207 -2.568,0 -5.715,1.332 -8.609,3.646 l 0,23.945 5.717,0 0,3.393 -19.641,0 0,-3.39 z"
           id="path3768"
           inkscape:connector-curvature="0"
           style="fill:#00578e" /><path
           d="m 733.979,488.105 6.047,0 0,-27.844 -6.047,0 0,-3.395 13.672,0 0,31.238 5.885,0 0,3.393 -19.557,0 0,-3.392 z m 13.694,-41.718 c 0,2.477 -2.084,4.574 -4.582,4.574 -2.488,0 -4.574,-2.098 -4.574,-4.574 0,-2.492 2.086,-4.582 4.574,-4.582 2.498,0 4.582,2.09 4.582,4.582 z"
           id="path3770"
           inkscape:connector-curvature="0"
           style="fill:#00578e" /><path
           d="m 758.501,480.816 1.824,0 c 1.16,5.139 5.057,8.285 9.113,8.285 3.646,0 6.133,-1.822 6.133,-4.557 0,-5.391 -8.117,-5.391 -13.92,-11.189 -2.232,-2.232 -3.311,-4.807 -3.311,-7.283 0,-5.643 5.129,-10.197 11.43,-10.197 2.404,0 4.135,0.5 6.875,1.984 l 0,-1.898 2.57,0 0,9.191 -1.984,0 c -1.004,-3.73 -3.645,-5.883 -7.129,-5.883 -2.984,0 -5.301,2.002 -5.301,4.561 0,4.885 8.938,6.299 14.328,11.688 1.982,1.984 2.896,4.305 2.896,6.789 0,6.051 -4.795,10.184 -11.764,10.184 -3.314,0 -5.215,-0.57 -8.857,-2.564 l -0.5,2.402 -2.404,0 0,-11.513 z"
           id="path3772"
           inkscape:connector-curvature="0"
           style="fill:#00578e" /><path
           d="m 784.761,460.262 12.434,-12.834 0,9.439 9.686,0 0,3.395 -9.686,0 0,20.051 c 0,5.477 1.48,8.045 4.635,8.045 3.316,0 4.967,-2.65 5.803,-2.65 0.492,0 0.826,0.654 0.826,1.072 0,0.912 -3.063,5.711 -9.111,5.711 -6.299,0 -9.777,-4.053 -9.777,-11.512 l 0,-20.717 -4.81,0 z"
           id="path3774"
           inkscape:connector-curvature="0"
           style="fill:#00578e" /><path
           d="m 812.989,488.105 6.211,0 0,-27.844 -6.211,0 0,-3.395 13.824,0 0,5.799 0.17,0 c 4.146,-5.131 6.217,-6.791 8.453,-6.791 2.066,0 3.896,0.992 5.879,3.311 -0.654,3.48 -1.74,6.305 -3.143,8.535 -1.994,-3.645 -3.154,-4.885 -5.477,-4.885 -2.232,0 -3.969,1.494 -5.883,4.145 l 0,21.125 6.221,0 0,3.393 -20.045,0 0,-3.393 z"
           id="path3776"
           inkscape:connector-curvature="0"
           style="fill:#00578e" /><path
           d="m 862.358,475.186 0,9.275 c -2.152,1.744 -3.969,2.568 -5.631,2.568 -2.572,0 -4.469,-1.992 -4.469,-4.637 10e-4,-3.396 2.889,-5.474 10.1,-7.206 z m -15.576,-11.19 c 4.146,-2.574 7.123,-3.734 9.775,-3.734 4.557,0 5.801,2.826 5.801,6.889 l 0,4.639 -7.617,1.896 c -6.799,1.666 -9.611,4.559 -9.611,9.697 0,5.055 3.479,9.107 8.031,9.107 2.99,0 5.969,-2.066 10.109,-5.129 1.822,3.639 3.643,5.129 6.299,5.129 2.402,0 4.971,-0.992 7.541,-2.813 l 0,-2.316 c -0.754,0.158 -2.904,0.494 -3.564,0.494 -2.07,0 -3.564,-2.148 -3.564,-5.635 l 0,-14.162 c 0,-7.545 -4.145,-12.184 -10.852,-12.184 -4.146,0 -9.027,2.07 -13.174,5.719 l 0.826,2.403 z"
           id="path3778"
           inkscape:connector-curvature="0"
           style="fill:#00578e" /><path
           d="m 877.905,460.262 12.432,-12.834 0,9.439 9.697,0 0,3.395 -9.697,0 0,20.051 c 0,5.477 1.486,8.045 4.637,8.045 3.316,0 4.977,-2.65 5.799,-2.65 0.502,0 0.83,0.654 0.83,1.072 0,0.912 -3.063,5.711 -9.111,5.711 -6.303,0 -9.777,-4.053 -9.777,-11.512 l 0,-20.717 -4.81,0 z"
           id="path3780"
           inkscape:connector-curvature="0"
           style="fill:#00578e" /><path
           d="m 904.831,488.105 6.051,0 0,-27.844 -6.051,0 0,-3.395 13.672,0 0,31.238 5.885,0 0,3.393 -19.557,0 0,-3.392 z m 13.701,-41.718 c 0,2.477 -2.084,4.574 -4.582,4.574 -2.488,0 -4.574,-2.098 -4.574,-4.574 0,-2.492 2.086,-4.582 4.574,-4.582 2.498,0 4.582,2.09 4.582,4.582 z"
           id="path3782"
           inkscape:connector-curvature="0"
           style="fill:#00578e" /><path
           d="m 935.188,474.188 c 0,-9.359 3.971,-14.918 10.521,-14.918 6.621,0 10.518,5.559 10.518,14.918 0,9.365 -3.896,14.914 -10.518,14.914 -6.55,0 -10.521,-5.549 -10.521,-14.914 z m -8.535,0 c 0,10.273 8.367,18.303 19.057,18.303 10.68,0 19.053,-8.029 19.053,-18.303 0,-10.277 -8.373,-18.313 -19.053,-18.313 -10.689,0 -19.057,8.035 -19.057,18.313 z"
           id="path3784"
           inkscape:connector-curvature="0"
           style="fill:#00578e" /><path
           d="m 966.271,488.105 6.301,0 0,-27.844 -6.301,0 0,-3.395 13.92,0 0,3.898 c 4.063,-2.977 8.211,-4.891 12.85,-4.891 5.463,0 9.518,3.48 9.518,10.115 l 0,22.115 6.133,0 0,3.393 -19.215,0 0,-3.393 5.467,0 0,-20.385 c 0,-4.717 -2.572,-7.207 -6.133,-7.207 -2.57,0 -5.717,1.332 -8.619,3.646 l 0,23.945 5.723,0 0,3.393 -19.643,0 0,-3.39 z"
           id="path3786"
           inkscape:connector-curvature="0"
           style="fill:#00578e" /></g><g
         id="g3788"><path
           d="m 516.657,347.772 6.879,0 0,-39.764 -12.76,0 0,6.791 -4.139,0 0,-15.076 4.139,0 0,2.563 33.557,0 0,-2.563 4.141,0 0,15.077 -4.141,0 0,-6.791 -12.754,0 0,39.764 6.873,0 0,4.137 -21.795,0 0,-4.138 z"
           id="path3790"
           inkscape:connector-curvature="0"
           style="fill:#00578e" /><path
           d="m 546.915,348.515 6.213,0 0,-27.832 -6.213,0 0,-3.396 13.838,0 0,5.799 0.16,0 c 4.146,-5.139 6.211,-6.791 8.453,-6.791 2.066,0 3.896,0.992 5.881,3.314 -0.66,3.477 -1.734,6.285 -3.146,8.535 -1.984,-3.646 -3.145,-4.891 -5.461,-4.891 -2.248,0 -3.984,1.484 -5.887,4.135 l 0,21.127 6.209,0 0,3.395 -20.047,0 0,-3.395 z"
           id="path3792"
           inkscape:connector-curvature="0"
           style="fill:#00578e" /><path
           d="m 594.505,335.591 0,9.285 c -2.152,1.734 -3.971,2.564 -5.633,2.564 -2.566,0 -4.469,-1.99 -4.469,-4.639 0,-3.396 2.905,-5.468 10.102,-7.21 z m -15.568,-11.182 c 4.139,-2.566 7.129,-3.727 9.77,-3.727 4.557,0 5.799,2.822 5.799,6.873 l 0,4.639 -7.617,1.902 c -6.791,1.662 -9.609,4.566 -9.609,9.697 0,5.051 3.479,9.117 8.031,9.117 2.99,0 5.969,-2.08 10.115,-5.139 1.816,3.646 3.645,5.139 6.291,5.139 2.402,0 4.971,-1.002 7.543,-2.822 l 0,-2.316 c -0.742,0.168 -2.904,0.5 -3.564,0.5 -2.066,0 -3.564,-2.162 -3.564,-5.641 l 0,-14.166 c 0,-7.535 -4.133,-12.172 -10.852,-12.172 -4.139,0 -9.027,2.066 -13.176,5.713 l 0.833,2.403 z"
           id="path3794"
           inkscape:connector-curvature="0"
           style="fill:#00578e" /><path
           d="m 611.495,348.515 6.299,0 0,-27.832 -6.299,0 0,-3.396 13.914,0 0,3.889 c 4.063,-2.979 8.199,-4.881 12.838,-4.881 5.475,0 9.537,3.479 9.537,10.102 l 0,22.119 6.162,0 0,3.395 -19.26,0 0,-3.395 5.477,0 0,-20.371 c 0,-4.725 -2.572,-7.213 -6.137,-7.213 -2.566,0 -5.713,1.326 -8.617,3.646 l 0,23.938 5.713,0 0,3.395 -19.627,0 0,-3.396 z"
           id="path3796"
           inkscape:connector-curvature="0"
           style="fill:#00578e" /><path
           d="m 657.351,341.222 1.824,0 c 1.164,5.141 5.061,8.293 9.117,8.293 3.645,0 6.133,-1.824 6.133,-4.564 0,-5.383 -8.121,-5.383 -13.918,-11.176 -2.24,-2.24 -3.324,-4.809 -3.324,-7.293 0,-5.631 5.143,-10.188 11.443,-10.188 2.402,0 4.135,0.49 6.871,1.984 l 0,-1.904 2.57,0 0,9.197 -1.982,0 c -1.008,-3.729 -3.646,-5.883 -7.131,-5.883 -2.982,0 -5.303,1.984 -5.303,4.559 0,4.889 8.951,6.293 14.332,11.676 1.984,1.988 2.906,4.305 2.906,6.793 0,6.047 -4.805,10.195 -11.768,10.195 -3.322,0 -5.221,-0.582 -8.863,-2.568 l -0.5,2.398 -2.408,0 0,-11.519 z"
           id="path3798"
           inkscape:connector-curvature="0"
           style="fill:#00578e" /><path
           d="m 695.909,324.577 c 2.895,-3.402 4.805,-4.564 7.701,-4.564 5.883,0 9.609,6.133 9.609,15.994 0,7.617 -3.23,13.508 -9.029,13.508 -3.234,0 -6.299,-1.91 -8.281,-4.971 l 0,-19.967 z m -13.758,45.569 18.676,0 0,-3.396 -4.918,0 0,-16.742 c 2.482,1.902 5.629,2.904 9.025,2.904 12.842,0 16.818,-10.52 16.818,-18.889 0,-12.766 -8.617,-17.729 -15.574,-17.729 -1.988,0 -3.729,0.322 -5.385,0.992 -1.658,0.66 -3.234,1.816 -4.885,3.396 l 0,-3.396 -13.758,0 0,3.396 6.131,0 0,46.066 -6.131,0 0,3.398 z"
           id="path3800"
           inkscape:connector-curvature="0"
           style="fill:#00578e" /><path
           d="m 734.759,334.597 c 0,-9.357 3.984,-14.908 10.523,-14.908 6.627,0 10.521,5.551 10.521,14.908 0,9.361 -3.895,14.918 -10.521,14.918 -6.539,0 -10.523,-5.557 -10.523,-14.918 z m -8.533,0 c 0,10.279 8.373,18.314 19.057,18.314 10.689,0 19.059,-8.035 19.059,-18.314 0,-10.268 -8.369,-18.303 -19.059,-18.303 -10.684,0 -19.057,8.035 -19.057,18.303 z"
           id="path3802"
           inkscape:connector-curvature="0"
           style="fill:#00578e" /><path
           d="m 768.317,348.515 6.205,0 0,-27.832 -6.205,0 0,-3.396 13.836,0 0,5.799 0.162,0 c 4.139,-5.139 6.207,-6.791 8.453,-6.791 2.066,0 3.889,0.992 5.875,3.314 -0.66,3.477 -1.736,6.285 -3.146,8.535 -1.986,-3.646 -3.146,-4.891 -5.463,-4.891 -2.242,0 -3.982,1.484 -5.881,4.135 l 0,21.127 6.213,0 0,3.395 -20.049,0 0,-3.395 z"
           id="path3804"
           inkscape:connector-curvature="0"
           style="fill:#00578e" /><path
           d="m 800.267,320.683 12.432,-12.842 0,9.445 9.695,0 0,3.396 -9.695,0 0,20.047 c 0,5.463 1.498,8.033 4.641,8.033 3.313,0 4.973,-2.652 5.799,-2.652 0.502,0 0.83,0.668 0.83,1.078 0,0.916 -3.064,5.723 -9.115,5.723 -6.301,0 -9.775,-4.066 -9.775,-11.521 l 0,-20.707 -4.812,0 z"
           id="path3806"
           inkscape:connector-curvature="0"
           style="fill:#00578e" /><path
           d="m 844.427,335.591 0,9.285 c -2.15,1.734 -3.977,2.564 -5.633,2.564 -2.563,0 -4.477,-1.99 -4.477,-4.639 0,-3.396 2.907,-5.468 10.11,-7.21 z m -15.574,-11.182 c 4.148,-2.566 7.127,-3.727 9.781,-3.727 4.551,0 5.793,2.822 5.793,6.873 l 0,4.639 -7.623,1.902 c -6.791,1.662 -9.611,4.566 -9.611,9.697 0,5.051 3.477,9.117 8.045,9.117 2.977,0 5.963,-2.08 10.102,-5.139 1.828,3.646 3.645,5.139 6.301,5.139 2.402,0 4.961,-1.002 7.531,-2.822 l 0,-2.316 c -0.744,0.168 -2.895,0.5 -3.564,0.5 -2.064,0 -3.559,-2.162 -3.559,-5.641 l 0,-14.166 c 0,-7.535 -4.139,-12.172 -10.848,-12.172 -4.146,0 -9.037,2.066 -13.172,5.713 l 0.824,2.403 z"
           id="path3808"
           inkscape:connector-curvature="0"
           style="fill:#00578e" /><path
           d="m 860.769,320.683 12.418,-12.842 0,9.445 9.697,0 0,3.396 -9.697,0 0,20.047 c 0,5.463 1.496,8.033 4.641,8.033 3.322,0 4.977,-2.652 5.807,-2.652 0.492,0 0.83,0.668 0.83,1.078 0,0.916 -3.074,5.723 -9.115,5.723 -6.295,0 -9.775,-4.066 -9.775,-11.521 l 0,-20.707 -4.806,0 z"
           id="path3810"
           inkscape:connector-curvature="0"
           style="fill:#00578e" /><path
           d="m 887.688,348.515 6.051,0 0,-27.832 -6.051,0 0,-3.396 13.666,0 0,31.229 5.891,0 0,3.395 -19.557,0 0,-3.396 z m 13.696,-41.723 c 0,2.494 -2.088,4.576 -4.586,4.576 -2.482,0 -4.572,-2.082 -4.572,-4.576 0,-2.494 2.09,-4.582 4.572,-4.582 2.498,0 4.586,2.088 4.586,4.582 z"
           id="path3812"
           inkscape:connector-curvature="0"
           style="fill:#00578e" /><path
           d="m 920.413,334.597 c 0,-9.357 3.977,-14.908 10.518,-14.908 6.631,0 10.52,5.551 10.52,14.908 0,9.361 -3.889,14.918 -10.52,14.918 -6.541,0 -10.518,-5.557 -10.518,-14.918 z m -8.537,0 c 0,10.279 8.369,18.314 19.055,18.314 10.688,0 19.057,-8.035 19.057,-18.314 0,-10.268 -8.369,-18.303 -19.057,-18.303 -10.686,0 -19.055,8.035 -19.055,18.303 z"
           id="path3814"
           inkscape:connector-curvature="0"
           style="fill:#00578e" /><path
           d="m 953.882,348.515 6.289,0 0,-27.832 -6.289,0 0,-3.396 13.916,0 0,3.889 c 4.066,-2.979 8.205,-4.881 12.844,-4.881 5.471,0 9.525,3.479 9.525,10.102 l 0,22.119 6.133,0 0,3.395 -19.225,0 0,-3.395 5.479,0 0,-20.371 c 0,-4.725 -2.574,-7.213 -6.131,-7.213 -2.574,0 -5.721,1.326 -8.625,3.646 l 0,23.938 5.717,0 0,3.395 -19.633,0 0,-3.396 z"
           id="path3816"
           inkscape:connector-curvature="0"
           style="fill:#00578e" /></g></g><g
       id="g3818"><circle
         cx="342.29199"
         cy="396.474"
         r="125"
         id="circle3820"
         style="fill:#ffffff" /><g
         id="g3822"><g
           id="g3824"><path
             d="m 418.238,351.566 c -1.4,0.48 -2.797,0.865 -4.158,1.161 7.783,12.744 12.266,27.72 12.266,43.74 0,46.414 -37.625,84.041 -84.037,84.041 -46.412,0 -84.037,-37.627 -84.037,-84.041 0,-16.726 4.888,-32.31 13.31,-45.401 -1.34,-0.391 -2.649,-0.899 -3.963,-1.521 -8.558,13.588 -13.509,29.677 -13.509,46.922 0,48.712 39.489,88.2 88.199,88.2 48.711,0 88.2,-39.488 88.2,-88.2 0,-16.398 -4.475,-31.749 -12.271,-44.901 z"
             id="path3826"
             inkscape:connector-curvature="0"
             style="fill:#00578e" /><path
             d="m 293.448,328.088 c 13.768,-9.854 30.636,-15.655 48.86,-15.655 20.354,0 39.019,7.235 53.561,19.276 1.642,-0.468 3.238,-0.89 4.873,-1.306 -15.56,-13.772 -36.016,-22.134 -58.434,-22.134 -20.094,0 -38.624,6.724 -53.454,18.042 0.701,0.255 1.409,0.513 2.124,0.788 0.851,0.327 1.674,0.656 2.47,0.989 z"
             id="path3828"
             inkscape:connector-curvature="0"
             style="fill:#00578e" /></g><path
           d="m 342.292,271.474 c -69.032,0 -124.999,55.963 -124.999,124.998 0,69.038 55.966,125.002 124.999,125.002 69.037,0 125.001,-55.964 125.001,-125.002 0,-69.035 -55.965,-124.998 -125.001,-124.998 z m 0.004,242.257 c -64.762,0 -117.259,-52.5 -117.259,-117.26 0,-64.755 52.497,-117.252 117.259,-117.252 64.755,0 117.253,52.498 117.253,117.252 0,64.76 -52.498,117.26 -117.253,117.26 z"
           id="path3830"
           inkscape:connector-curvature="0"
           style="fill:#00578e" /><g
           id="g3832"><path
             d="m 312.132,371.41 c -1.783,-0.912 -3.338,-1.966 -5.007,-3.488 -5.365,-4.89 -6.635,-10.029 -5.048,-15.932 0.943,-3.514 2.382,-5.284 1.893,-8.95 -0.279,-2.1 -1.769,-3.789 -3.254,-5.215 -3.586,-3.449 -7.837,-5.577 -14.122,-7.692 -3.88,-1.303 -15.163,-4.806 -20.143,-9.313 -1.125,3.311 1.284,7.715 4.151,8.305 -2.538,0.256 -4.711,1.579 -5.718,3.02 1.915,2.22 5.742,4.529 8.899,4.589 -1.46,0.979 -3.235,3.05 -3.831,4.214 2.73,1.452 7.083,2.672 10.434,2.439 -1.407,1.126 -2.628,2.559 -3.421,3.869 2.266,1.033 6.673,2.534 10.872,2.846 -1.545,0.764 -3.752,3.399 -4.892,5.023 2.359,1.056 7.47,1.693 10.64,2.009 -2.27,1.195 -4.64,3.575 -5.948,5.729 2.297,1.104 6.621,2.331 10.154,2.217 -1.74,1.666 -2.894,3.699 -3.553,5.663 2.674,0.548 5.488,0.561 8.745,0.124 -1.98,2.505 -2.773,5.814 -3.054,8.181 2.651,-0.078 6.167,-0.677 8.651,-2.165 -0.542,2.026 -0.419,4.761 0.452,6.695 1.038,-0.233 2.25,-0.668 3.564,-1.381 -0.188,-3.759 -0.352,-7.611 -0.464,-10.787 z"
             id="path3834"
             inkscape:connector-curvature="0"
             style="fill:#00578e" /><path
             d="m 419.844,326.9 c -4.98,4.51 -12.943,5.715 -21.303,8.476 -6.296,2.076 -10.205,3.294 -15.844,7.788 -1.609,1.282 -3.141,3.158 -2.969,6.4 0.191,3.6 0.775,5.151 0.865,10.184 0.066,3.585 -1.166,6.469 -2.675,8.174 -1.589,1.8 -3.659,3.367 -5.509,4.339 -0.113,3.06 -0.25,6.133 -0.42,9.704 1.311,0.713 2.987,1.38 4.027,1.613 0.865,-1.935 0.99,-4.669 0.449,-6.695 2.48,1.488 5.998,2.087 8.648,2.165 -0.28,-2.366 -1.072,-5.676 -3.053,-8.181 3.255,0.437 6.069,0.424 8.741,-0.124 -0.658,-1.964 -1.812,-3.997 -3.55,-5.663 3.532,0.114 7.858,-1.113 10.156,-2.217 -1.312,-2.154 -3.682,-4.534 -5.949,-5.729 3.168,-0.315 8.419,-0.932 10.781,-1.986 -1.143,-1.624 -3.493,-4.282 -5.033,-5.046 4.197,-0.312 8.604,-1.813 10.871,-2.846 -0.798,-1.311 -2.018,-2.743 -3.42,-3.869 3.934,-0.265 7.703,-0.987 10.432,-2.439 -0.596,-1.164 -2.375,-3.235 -3.83,-4.214 8.429,-2.346 8.572,-6.556 8.585,-9.834 z"
             id="path3836"
             inkscape:connector-curvature="0"
             style="fill:#00578e" /><path
             d="m 384.411,335.803 c -11.949,-8.3 -26.464,-13.165 -42.118,-13.165 -14.271,0 -27.594,4.047 -38.894,11.05 2.929,2.276 4.669,4.68 5.093,7.185 0.372,2.191 0.625,4.832 -0.643,8.686 -1.344,4.09 -2.079,8.293 0.941,12.56 3.004,4.247 6.905,6.079 10.14,6.7 l 0,0 c 4.235,-0.743 8.928,-1.352 13.601,-1.725 l 0,0 c 0.609,-1.978 2.415,-3.697 4.223,-5.104 2.625,-2.042 2.045,-3.829 1.424,-5.217 -0.483,-1.082 -1.424,-1.966 -2.775,-2.668 -1.183,-0.61 -5.514,-1.062 -5.398,1.706 -0.703,-0.998 -1.275,-2.36 -0.856,-4.094 0.583,-2.414 4.528,-3.027 5.508,-2.956 -0.76,-0.645 -0.287,-1.684 1.44,-2.162 2.099,-0.58 4.086,-0.669 6.014,-0.619 3.956,0.103 4.579,1.068 6.591,2.853 2.423,2.154 5.617,2.896 6.883,1.599 -0.904,2.062 -3.779,3.159 -5.627,2.839 0.898,2.854 1.221,5.328 1.543,8.322 0.146,1.36 0.43,3.65 0.798,5.52 5.308,0.438 10.632,1.17 15.272,2.058 l 0,0 c 1.928,-0.563 3.92,-1.689 5.705,-3.756 1.7,-1.962 3.26,-4.448 2.615,-10.712 -0.18,-1.763 -1.064,-6.274 -0.939,-8.396 0.278,-4.813 3.851,-7.954 9.459,-10.504 z"
             id="path3838"
             inkscape:connector-curvature="0"
             style="fill:#00578e" /><path
             d="m 335.32,348.992 c 0.734,0.552 1.16,0.619 1.406,0.566 0.02,0.134 0.262,0.311 0.317,0.363 0.157,0.139 0.243,0.268 0.286,0.415 0.333,-0.139 1.215,-0.498 2.017,-0.785 0.815,-0.294 1.943,-0.625 1.943,-0.625 -3.496,-0.736 -4.026,0.332 -5.969,0.066 z"
             id="path3840"
             inkscape:connector-curvature="0"
             style="fill:#00578e" /></g><g
           id="g3842"><g
             id="g3844"><g
               id="g3846"><path
                 d="m 342.285,433.619 -0.792,0 c -0.391,-2.483 -2.199,-4.021 -4.829,-4.831 -2.001,-0.62 -4.902,-1.563 -11.107,-3.462 -7.193,-2.207 -10.864,-7.996 -11.357,-15.271 -0.695,-10.272 -1.73,-28.329 -2.106,-39.818 8.114,-1.996 20.099,-3.563 30.192,-3.563 10.096,0 22.078,1.567 30.196,3.563 -0.375,11.489 -1.411,29.546 -2.11,39.818 -0.493,7.275 -4.159,13.064 -11.355,15.271 -6.206,1.899 -9.106,2.842 -11.106,3.462 -2.631,0.811 -4.439,2.348 -4.829,4.831 l -0.797,0"
                 id="path3848"
                 inkscape:connector-curvature="0"
                 style="fill:#ffffff" /></g><path
               d="m 340.227,407.382 -1.468,-0.734 -0.953,-2.486 -2.159,-0.942 -2.422,-2.165 -1.443,1.593 -2.151,0.501 -1.144,1.822 -1.739,1.838 -2.356,1.246 -1.631,2.763 -0.921,1.225 -1.594,1.238 -0.878,-0.93 -0.938,0.899 -1.177,2.177 c -0.623,-1.624 -1,-2.886 -1.188,-5.496 -0.346,-4.827 -0.696,-10.895 -1.04,-17.103 7.97,-1.717 18.107,-2.855 26.345,-2.934 l 0,18.817 c -0.373,-0.224 -0.757,-0.399 -1.143,-1.329 z"
               id="path3850"
               inkscape:connector-curvature="0"
               style="fill:#00578e" /><path
               d="m 341.37,416.446 -23.692,0 c 0.348,0.73 0.752,1.414 1.208,2.058 1.71,2.396 4.137,4.168 7.219,5.112 4.186,1.286 6.853,2.124 8.795,2.74 l 2.315,0.725 c 1.898,0.586 3.224,1.436 4.154,2.383 l 0,-13.018 z"
               id="path3852"
               inkscape:connector-curvature="0"
               style="fill:#00578e" /><path
               d="m 366.396,407.291 c 0.646,-0.519 1.395,-1.127 2.379,-1.485 0.139,-2.207 0.283,-4.572 0.428,-7.019 -0.26,0.171 -0.539,0.393 -0.873,0.664 -1.129,0.911 -2.543,2.054 -5.023,2.054 -2.332,0 -3.842,-0.925 -5.051,-1.67 -0.992,-0.611 -1.779,-1.091 -2.933,-1.091 -1.282,0 -2.383,0.659 -3.553,1.358 -1.253,0.753 -2.682,1.606 -4.429,1.606 -1.785,0 -3.086,-0.543 -4.141,-1.131 l 0,6.653 c 0.243,0.139 0.475,0.283 0.699,0.42 1.061,0.654 1.979,1.217 3.441,1.217 0.899,0 1.801,-0.541 2.848,-1.171 1.409,-0.842 3.002,-1.795 5.134,-1.795 2.021,0 3.359,0.824 4.545,1.545 1.056,0.656 1.975,1.219 3.438,1.219 1.396,10e-4 2.149,-0.605 3.091,-1.374 z"
               id="path3854"
               inkscape:connector-curvature="0"
               style="fill:#00578e" /><path
               d="m 347.342,422.45 c -1.785,0 -3.086,-0.545 -4.141,-1.127 l 0,8.141 c 0.93,-0.947 2.258,-1.799 4.152,-2.383 l 2.317,-0.725 c 1.941,-0.616 4.602,-1.454 8.795,-2.74 1.22,-0.374 2.341,-0.879 3.354,-1.503 -1.523,-0.285 -2.628,-0.965 -3.563,-1.539 -0.992,-0.61 -1.779,-1.092 -2.933,-1.092 -1.282,0 -2.383,0.664 -3.553,1.361 -1.252,0.756 -2.681,1.607 -4.428,1.607 z"
               id="path3856"
               inkscape:connector-curvature="0"
               style="fill:#00578e" /><path
               d="m 366.396,397.061 c 0.777,-0.628 1.701,-1.375 3.006,-1.668 0.047,-0.852 0.096,-1.706 0.146,-2.565 -7.973,-1.714 -18.105,-2.85 -26.348,-2.934 l 0,7.109 c 0.243,0.137 0.475,0.279 0.699,0.42 1.061,0.651 1.979,1.218 3.441,1.218 0.899,0 1.801,-0.542 2.848,-1.174 1.409,-0.842 3.002,-1.797 5.134,-1.797 2.021,0 3.359,0.828 4.545,1.549 1.056,0.655 1.975,1.216 3.438,1.216 1.396,0 2.149,-0.606 3.091,-1.374 z"
               id="path3858"
               inkscape:connector-curvature="0"
               style="fill:#00578e" /><path
               d="m 343.201,410.809 0,6.935 c 0.243,0.137 0.475,0.281 0.699,0.418 1.061,0.658 1.979,1.217 3.441,1.217 0.899,0 1.801,-0.539 2.848,-1.169 1.409,-0.842 3.002,-1.799 5.134,-1.799 2.021,0 3.359,0.826 4.545,1.55 1.056,0.653 1.975,1.214 3.438,1.214 1.135,0 1.842,-0.398 2.576,-0.959 1.518,-2.252 2.404,-5.039 2.621,-8.285 0.006,-0.137 0.018,-0.277 0.028,-0.41 -0.067,0.052 -0.131,0.103 -0.202,0.158 -1.129,0.915 -2.543,2.057 -5.023,2.057 -2.332,0 -3.842,-0.924 -5.051,-1.668 -0.992,-0.614 -1.779,-1.096 -2.933,-1.096 -1.282,0 -2.383,0.659 -3.553,1.363 -1.253,0.752 -2.682,1.604 -4.429,1.604 -1.783,-0.001 -3.084,-0.543 -4.139,-1.13 z"
               id="path3860"
               inkscape:connector-curvature="0"
               style="fill:#00578e" /></g><g
             id="g3862"><path
               d="m 314.924,391.018 c -0.377,-6.923 -0.711,-13.89 -0.909,-19.393 8.396,-1.907 19.53,-3.161 28.27,-3.161 8.741,0 19.877,1.254 28.274,3.161 -0.199,5.503 -0.533,12.47 -0.912,19.393 -7.914,-1.68 -18.385,-2.92 -27.362,-2.92 -8.978,0 -19.443,1.24 -27.361,2.92 z"
               id="path3864"
               inkscape:connector-curvature="0"
               style="fill:#00578e" /><polygon
               points="320.872,373.924 321.03,372.409 321.647,373.803 323.119,373.494 322.001,374.513 322.756,375.839 321.448,375.068 320.442,376.202 320.753,374.709 319.369,374.083 "
               id="polygon3866"
               style="fill:#ffffff" /><polygon
               points="327.706,373.764 326.352,373.077 327.861,372.985 328.083,371.477 328.64,372.897 330.127,372.65 328.965,373.621 329.662,374.979 328.387,374.152 327.327,375.242 "
               id="polygon3868"
               style="fill:#ffffff" /><polygon
               points="334.693,373.13 333.375,372.376 334.887,372.36 335.188,370.866 335.667,372.313 337.167,372.145 335.953,373.054 336.58,374.445 335.351,373.552 334.239,374.588 "
               id="polygon3870"
               style="fill:#ffffff" /><polygon
               points="341.687,372.867 340.42,372.033 341.926,372.11 342.317,370.64 342.711,372.11 344.217,372.033 342.948,372.867 343.491,374.297 342.317,373.332 341.145,374.297 "
               id="polygon3872"
               style="fill:#ffffff" /><polygon
               points="361.514,373.503 362.986,373.812 363.605,372.419 363.76,373.934 365.264,374.093 363.881,374.719 364.195,376.212 363.186,375.078 361.877,375.848 362.633,374.522 "
               id="polygon3874"
               style="fill:#ffffff" /><polygon
               points="356.531,371.477 356.762,372.985 358.268,373.071 356.918,373.762 357.301,375.24 356.237,374.154 354.963,374.984 355.662,373.625 354.49,372.658 355.98,372.899 "
               id="polygon3876"
               style="fill:#ffffff" /><polygon
               points="349.453,370.871 349.756,372.364 351.267,372.382 349.95,373.134 350.402,374.593 349.289,373.556 348.061,374.449 348.685,373.057 347.473,372.148 348.975,372.317 "
               id="polygon3878"
               style="fill:#ffffff" /><polygon
               points="321.893,385.124 322.063,383.61 322.669,385.008 324.144,384.711 323.018,385.721 323.763,387.052 322.461,386.272 321.447,387.398 321.769,385.908 320.389,385.272 "
               id="polygon3880"
               style="fill:#ffffff" /><polygon
               points="328.472,385.031 327.124,384.334 328.634,384.255 328.871,382.748 329.414,384.174 330.903,383.941 329.732,384.9 330.418,386.265 329.149,385.427 328.081,386.507 "
               id="polygon3882"
               style="fill:#ffffff" /><polygon
               points="335.186,384.458 333.871,383.699 335.382,383.689 335.689,382.197 336.162,383.646 337.663,383.482 336.445,384.387 337.066,385.78 335.841,384.883 334.726,385.914 "
               id="polygon3884"
               style="fill:#ffffff" /><polygon
               points="341.916,384.229 340.649,383.396 342.155,383.474 342.546,382.002 342.939,383.474 344.445,383.396 343.178,384.229 343.72,385.659 342.546,384.694 341.374,385.659 "
               id="polygon3886"
               style="fill:#ffffff" /><polygon
               points="360.959,384.784 362.432,385.087 363.045,383.691 363.205,385.205 364.71,385.359 363.33,385.99 363.651,387.482 362.637,386.352 361.332,387.127 362.082,385.798 "
               id="polygon3888"
               style="fill:#ffffff" /><polygon
               points="356.235,382.805 356.469,384.313 357.977,384.396 356.627,385.09 357.014,386.566 355.948,385.482 354.675,386.315 355.371,384.954 354.198,383.99 355.689,384.229 "
               id="polygon3890"
               style="fill:#ffffff" /><polygon
               points="349.42,382.229 349.723,383.724 351.232,383.739 349.916,384.493 350.369,385.95 349.256,384.914 348.025,385.807 348.65,384.415 347.439,383.507 348.94,383.675 "
               id="polygon3892"
               style="fill:#ffffff" /><polygon
               points="325.249,378.521 325.452,377.012 326.026,378.423 327.508,378.159 326.359,379.144 327.073,380.491 325.789,379.683 324.75,380.785 325.106,379.302 323.742,378.635 "
               id="polygon3894"
               style="fill:#ffffff" /><polygon
               points="318.549,379.555 318.696,378.038 319.323,379.428 320.793,379.108 319.683,380.136 320.447,381.456 319.133,380.694 318.136,381.836 318.436,380.341 317.047,379.725 "
               id="polygon3896"
               style="fill:#ffffff" /><polygon
               points="331.784,378.579 330.451,377.853 331.963,377.807 332.232,376.306 332.745,377.743 334.239,377.542 333.046,378.477 333.702,379.854 332.452,378.989 331.36,380.047 "
               id="polygon3898"
               style="fill:#ffffff" /><polygon
               points="338.476,378.17 337.18,377.379 338.691,377.406 339.034,375.921 339.473,377.381 340.977,377.255 339.737,378.129 340.324,379.537 339.123,378.61 337.98,379.614 "
               id="polygon3900"
               style="fill:#ffffff" /><polygon
               points="345.197,378.135 343.959,377.258 345.462,377.387 345.902,375.93 346.246,377.413 347.753,377.387 346.459,378.178 346.951,379.624 345.812,378.62 344.606,379.545 "
               id="polygon3902"
               style="fill:#ffffff" /><polygon
               points="364.168,379.138 365.635,379.476 366.279,378.096 366.404,379.613 367.904,379.804 366.51,380.401 366.794,381.901 365.809,380.746 364.483,381.489 365.267,380.179 "
               id="polygon3904"
               style="fill:#ffffff" /><polygon
               points="359.488,377.057 359.689,378.569 361.195,378.686 359.832,379.35 360.188,380.835 359.145,379.729 357.854,380.534 358.578,379.188 357.426,378.199 358.912,378.47 "
               id="polygon3906"
               style="fill:#ffffff" /><polygon
               points="352.705,376.336 352.975,377.836 354.484,377.887 353.151,378.611 353.57,380.079 352.48,379.017 351.232,379.882 351.888,378.505 350.696,377.568 352.195,377.771 "
               id="polygon3908"
               style="fill:#ffffff" /></g></g><path
           d="m 421.774,406.715 -6.114,1.886 1.379,0.563 -2.145,1.358 c 0.237,-1.246 0.444,-2.504 0.619,-3.771 l 3.357,-2.807 0.076,1.487 3.779,-5.165 -5.816,2.67 1.44,0.376 -2.681,2.236 c 0.188,-1.541 0.328,-3.098 0.418,-4.667 l 3.307,-3.66 0.277,1.464 3.053,-5.623 -5.411,3.418 1.483,0.179 -2.643,2.831 c 0.037,-0.975 0.063,-1.951 0.063,-2.934 0,-7.373 -1.083,-14.492 -3.092,-21.214 -3.35,0.307 -6.701,-0.762 -8.311,-1.074 4.286,2.515 5.771,5.229 6.401,8.347 -3.43,0.771 -8.013,-0.355 -10.515,-2.319 2.455,2.147 4,5.518 4.107,9 -3.539,0.178 -6.797,-1.479 -9.196,-3.881 1.542,1.715 3.486,6.059 3.027,9.145 -2.946,-0.313 -6.427,-2.244 -8.31,-4.552 1.559,3.456 2.309,6.253 2.126,9.352 -2.938,-0.553 -5.162,-1.375 -7.788,-3.885 1.266,3.153 1.732,6.322 1.451,8.928 -3.392,-1.196 -5.641,-2.544 -7.547,-5.736 1.011,2.811 1.676,6.507 0.973,8.657 -2.865,-0.859 -4.762,-2.578 -6.249,-5.512 1.475,3.105 1.288,6.721 0.792,8.601 -1.204,-0.242 -2.768,-1.07 -3.607,-1.993 -0.037,0.563 -0.074,1.111 -0.11,1.637 -0.142,2.1 -0.558,4.07 -1.237,5.875 0.233,0.269 0.795,0.933 0.818,0.96 1.51,1.616 3.567,3.163 5.197,3.677 -0.705,0.103 -1.668,0.705 -2.637,0.815 1.076,1.221 3.266,1.49 4.627,2.875 -1.061,0.12 -1.31,0.891 -2.583,0.746 2.437,1.88 4.671,1.953 5.925,2.096 0.501,0.058 2.145,0.212 3.185,0.052 1.471,-0.228 2.994,0.507 3.585,0.85 0.904,0.525 0.852,1.772 0.676,2.396 -0.107,0.383 -0.274,0.828 -0.949,1.185 -0.392,0.107 -0.635,0.137 -0.245,-0.148 0.356,-0.264 0.677,-1.836 -0.145,-2.45 -0.597,-0.439 -1.442,-0.802 -2.435,-0.757 -1.102,0.054 -2.787,0.152 -3.6,0.069 -0.748,-0.079 -1.213,0.909 -1.324,1.321 -0.268,0.979 -0.57,2.199 -1.988,1.591 -1.738,-0.998 -4.229,-0.917 -7.081,-2.064 0.409,0.876 0.231,1.633 0.667,2.609 -2.537,-0.624 -3.182,-1.914 -5.6,-2.764 0.398,0.888 0.292,1.569 0.838,2.405 -2.043,-0.361 -3.944,-2.191 -6.783,-2.948 -0.086,0.028 -0.17,0.054 -0.258,0.08 -1.033,0.314 -1.973,0.605 -2.834,0.871 2.007,2.278 3.666,5.066 4.439,8.446 0,0 -1.406,0.039 -3.508,-0.689 0.6,1.84 0.973,3.821 1.004,5.935 0,0 -1.592,-0.295 -3.766,-1.639 0.193,1.999 0.125,4.081 -0.292,6.224 0,0 -1.843,-0.754 -4.013,-2.967 -0.246,2.065 -0.766,4.165 -1.658,6.241 0,0 -1.671,-1.141 -3.395,-3.801 -0.709,2.069 -1.709,4.105 -3.071,6.049 0,0 -1.832,-1.921 -3.07,-5.8 -1.657,2.482 -3.227,3.552 -3.227,3.552 -0.886,-2.076 -1.408,-4.176 -1.66,-6.243 -2.166,2.215 -4.008,2.969 -4.008,2.969 -0.422,-2.143 -0.487,-4.229 -0.296,-6.228 -2.176,1.348 -3.773,1.643 -3.773,1.643 0.039,-2.113 0.407,-4.093 1.009,-5.935 -2.1,0.729 -3.505,0.689 -3.505,0.689 0.791,-3.446 3.046,-6.986 4.56,-8.579 0.002,0 0.002,0 0.003,0 -0.74,-0.228 -1.542,-0.476 -2.399,-0.738 -0.086,-0.026 -0.171,-0.052 -0.257,-0.08 -2.837,0.757 -4.74,2.587 -6.78,2.948 0.544,-0.836 0.432,-1.518 0.832,-2.405 -2.415,0.85 -3.063,2.14 -5.595,2.764 0.431,-0.977 0.255,-1.733 0.668,-2.609 -2.351,1.147 -5.577,1.951 -7.01,2.255 -1.572,0.326 -1.671,-2.019 -2.187,-2.538 -0.228,-0.228 -1.493,-0.326 -2.021,-0.237 -0.78,0.133 -2.306,0.065 -3.446,0.042 -1.138,-0.021 -1.924,0.32 -2.521,0.769 -0.826,0.609 -0.437,2.252 -0.077,2.516 0.391,0.287 0.149,0.255 -0.243,0.146 -0.676,-0.353 -0.844,-0.801 -0.952,-1.183 -0.175,-0.626 -0.229,-1.87 0.681,-2.396 0.585,-0.342 2.11,-1.079 3.581,-0.852 1.037,0.161 2.681,0.008 3.182,-0.053 0.5,-0.056 4.177,-0.729 6.613,-2.609 -1.273,0.145 -1.527,-0.626 -2.586,-0.746 1.364,-1.385 3.553,-1.654 4.63,-2.875 -0.968,-0.11 -1.818,-0.885 -2.52,-0.986 2.143,-1.2 3.568,-1.89 5.08,-3.506 0.021,-0.027 0.578,-0.665 0.813,-0.931 -0.688,-1.811 -1.107,-3.793 -1.25,-5.904 -0.034,-0.508 -0.069,-1.036 -0.105,-1.579 -0.529,0.584 -1.61,1.169 -3.365,1.801 -0.823,-1.995 -0.424,-5.717 0.615,-8.593 -1.49,2.934 -3.18,4.841 -6.051,5.7 -0.702,-2.15 -0.287,-5.908 0.721,-8.719 -1.905,3.192 -3.948,4.809 -7.344,6.004 -0.279,-2.605 -0.012,-6.042 1.244,-9.195 -2.62,2.51 -4.846,3.332 -7.782,3.885 -0.187,-3.099 0.568,-5.896 2.127,-9.352 -1.881,2.308 -5.793,3.887 -8.741,4.199 0.224,-2.682 2.103,-6.351 3.204,-8.507 -2.785,2.001 -5.744,3.423 -8.942,3.596 0.401,-3.042 1.765,-6.344 4.105,-9 -2.755,2.044 -6.967,3.147 -10.141,2.716 0.772,-3.341 2.822,-6.599 5.603,-8.343 -1.607,0.313 -4.534,0.98 -7.882,0.674 -1.979,6.618 -3.059,13.622 -3.092,20.873 -1.677,-1.315 -2.84,-1.646 -3.995,-2.787 0.218,1.57 0.422,2.425 0.598,4.369 0.315,3.49 1.633,5.495 3.825,6.749 0.107,0.996 0.233,1.984 0.379,2.969 -1.624,-1.044 -3.798,-1.686 -6.678,-1.653 1.751,5.69 4.248,6.11 7.601,6.653 0.114,0.521 0.234,1.038 0.36,1.555 -1.784,-0.462 -3.925,-0.476 -6.363,0.2 1.685,2.614 4.017,4.195 7.753,4.76 0.006,0.021 0.013,0.041 0.02,0.062 -2.296,-0.188 -4.78,0.146 -6.759,1.158 2.833,2.435 5.609,3.363 8.261,3.09 0.135,0.347 0.275,0.693 0.416,1.04 -2.098,0.557 -3.943,1.646 -4.984,2.656 2.212,0.695 4.474,1.072 6.519,0.854 0.024,0.052 0.047,0.104 0.071,0.153 -1.201,0.915 -2.246,2.398 -2.892,4.726 1.569,-0.402 3.185,-0.505 4.792,-0.967 0.324,0.595 0.657,1.185 0.996,1.77 -0.847,1.614 -1.144,3.645 -0.645,5.891 1.349,-0.312 2.469,-0.844 3.387,-1.516 0.317,0.47 0.638,0.934 0.966,1.395 -0.338,2.581 0.261,5.176 1.796,6.903 0.618,-0.7 1.114,-1.371 1.54,-2.021 3.332,-5.09 1.316,-8.755 1.39,-12.056 0.025,-0.067 0.053,-0.135 0.079,-0.206 0.273,3.93 3.688,7.806 -0.316,12.554 -0.079,0.095 -0.149,0.174 -0.222,0.256 13.556,15.741 33.624,25.712 56.026,25.712 31.809,0 58.922,-20.089 69.35,-48.273 l 3.358,-1.456 -0.253,1.466 4.836,-4.187 -6.271,1.295 1.325,0.689 -2.591,1.058 c 0.458,-1.302 0.882,-2.618 1.267,-3.951 l 3.682,-2.03 -0.123,1.485 4.441,-4.613 -6.125,1.863 1.377,0.565 -2.941,1.62 c 0.392,-1.444 0.744,-2.902 1.051,-4.378 l 2.797,-1.774 -0.119,1.483 4.423,-4.634 z"
           id="path3910"
           inkscape:connector-curvature="0"
           style="fill:#00578e" /><path
           d="m 303.369,433.638 c 6.02,4.531 9.433,10.818 10.311,15.884 -0.756,-0.555 -2.178,-1.129 -3.048,-0.965 -0.783,-5.342 -3.574,-9.656 -7.951,-13.174 0.186,-0.811 0.448,-1.365 0.688,-1.745 z"
           id="path3912"
           inkscape:connector-curvature="0"
           style="fill:#ffffff" /><g
           id="g3914"><path
             d="m 298.767,438.344 c 1.433,0.559 2.15,0.354 2.509,-0.15 0.767,-1.088 0.403,-2.516 -0.088,-2.771 0.11,0.438 0.092,0.901 -0.01,1.423 -0.079,0.424 -0.292,1.123 -1.084,1.025 -0.425,-0.05 -1.2,-0.253 -1.662,-0.568 -0.331,-0.226 -0.325,-0.792 -0.145,-1.268 0.091,-0.242 0.199,-0.58 0.496,-0.824 -0.491,0.113 -0.78,0.368 -1.163,0.666 -0.383,0.297 -0.95,0.356 -1.271,0.002 -0.405,-0.442 -0.655,-0.778 -0.787,-1.08 -0.342,-0.776 0.659,-1.349 1.24,-1.653 -1.003,0.014 -1.181,0.396 -1.991,0.255 -0.813,-0.141 -1.021,-1.445 -1.018,-1.88 10e-4,-0.318 0.392,-0.619 0.868,-0.73 0.443,-0.104 0.98,-0.063 1.277,-0.032 -0.043,-0.203 -0.071,-0.449 -0.064,-0.709 -0.821,-0.189 -2.402,0.088 -2.699,0.539 -0.381,0.572 -0.29,0.874 0.021,1.892 0.297,0.98 0.53,1.329 1.17,1.424 0.175,0.024 0.51,0.074 0.893,-0.069 -0.199,0.127 -0.337,0.232 -0.437,0.487 -0.108,0.26 -0.277,0.703 0.489,1.635 0.677,0.813 1.339,1.127 1.896,0.824 0.318,-0.175 0.425,-0.373 0.579,-0.525 -0.088,0.212 -0.181,0.452 -0.226,0.686 -0.156,0.798 0.449,1.108 1.207,1.401 z"
             id="path3916"
             inkscape:connector-curvature="0"
             style="fill:#ffffff" /><g
             id="g3918"><path
               d="m 297.717,432.08 c 0.411,-0.511 1.399,-0.572 1.963,-0.22 -0.385,0.718 -0.416,1.924 -0.204,2.51 -1.422,-0.225 -1.674,-1.572 -1.759,-2.29 z"
               id="path3920"
               inkscape:connector-curvature="0"
               style="fill:#ffffff" /><path
               d="m 299.938,432.001 c 0.834,-0.06 1.142,-0.469 1.295,-0.877 0.149,-0.402 0.6,-0.654 0.607,-0.042 0.006,0.61 0.012,0.884 -0.337,1.052 -0.347,0.167 -0.964,0.218 -1.565,-0.133 z"
               id="path3922"
               inkscape:connector-curvature="0"
               style="fill:#ffffff" /><path
               d="m 300.365,433.32 c -0.075,0.445 -0.24,0.872 -0.517,1.273 -0.214,0.308 -0.517,0.499 -0.739,0.689 0.383,0.291 0.927,0.458 1.381,0.436 0.454,-0.023 0.472,-0.089 0.444,-0.263 -0.106,-0.758 -0.395,-1.836 -0.569,-2.135 z"
               id="path3924"
               inkscape:connector-curvature="0"
               style="fill:#ffffff" /></g></g><g
           id="g3926"><path
             d="m 384.254,431.346 c 0.388,0.715 0.414,1.923 0.207,2.51 1.418,-0.226 1.672,-1.573 1.756,-2.288 -0.41,-0.513 -1.397,-0.573 -1.963,-0.222 z"
             id="path3928"
             inkscape:connector-curvature="0"
             style="fill:#ffffff" /><path
             d="m 383.996,431.486 c -0.836,-0.058 -1.141,-0.47 -1.291,-0.876 -0.155,-0.403 -0.603,-0.653 -0.608,-0.041 -0.011,0.61 -0.013,0.881 0.333,1.048 0.347,0.168 0.968,0.224 1.566,-0.131 z"
             id="path3930"
             inkscape:connector-curvature="0"
             style="fill:#ffffff" /><path
             d="m 384.087,434.077 c -0.274,-0.4 -0.439,-0.824 -0.519,-1.273 -0.17,0.303 -0.462,1.378 -0.568,2.139 -0.025,0.173 -0.01,0.238 0.446,0.264 0.454,0.023 0.997,-0.145 1.382,-0.436 -0.226,-0.191 -0.527,-0.381 -0.741,-0.694 z"
             id="path3932"
             inkscape:connector-curvature="0"
             style="fill:#ffffff" /><g
             id="g3934"><path
               d="m 408.831,411.494 1.437,0.395 -21.645,17.098 0.004,0.004 -0.509,0.404 c -0.034,0.004 -0.063,0.01 -0.097,0.014 0.018,0.254 0,0.501 -0.036,0.713 0.306,-0.014 0.722,-0.01 1.075,0.082 0.47,0.122 0.85,0.438 0.842,0.754 -0.008,0.435 -0.245,1.735 -1.063,1.853 -0.819,0.116 -0.98,-0.27 -1.987,-0.315 0.572,0.323 1.558,0.921 1.193,1.689 -0.142,0.3 -0.398,0.626 -0.813,1.061 -0.334,0.345 -0.896,0.269 -1.271,-0.04 -0.377,-0.307 -0.656,-0.57 -1.143,-0.699 0.289,0.254 0.39,0.597 0.467,0.838 0.171,0.479 0.158,1.048 -0.178,1.266 -0.473,0.299 -1.253,0.483 -1.678,0.521 -0.791,0.071 -0.988,-0.634 -1.057,-1.057 -0.084,-0.524 -0.09,-0.988 0.031,-1.424 -0.494,0.242 -0.9,1.66 -0.166,2.77 0.342,0.513 1.055,0.736 2.506,0.222 0.766,-0.273 1.379,-0.566 1.246,-1.371 -0.041,-0.237 -0.129,-0.478 -0.205,-0.691 0.148,0.157 0.248,0.357 0.563,0.537 0.549,0.323 1.214,0.025 1.916,-0.769 0.791,-0.905 0.635,-1.358 0.535,-1.618 -0.095,-0.26 -0.23,-0.37 -0.424,-0.499 0.377,0.154 0.715,0.112 0.893,0.093 0.643,-0.075 0.884,-0.42 1.211,-1.391 0.34,-1.008 0.437,-1.305 0.072,-1.89 -0.152,-0.245 -0.674,-0.451 -1.252,-0.564 l 21.477,-16.945 0.059,1.491 3.852,-5.112 -5.855,2.58 z"
               id="path3936"
               inkscape:connector-curvature="0"
               style="fill:#ffffff" /><path
               d="m 397.287,416.749 15.252,-19.311 0.404,1.437 2.561,-5.868 -5.096,3.871 1.486,0.052 -13.809,17.504 c -1.082,1.641 -2.234,3.388 -3.313,5.021 l 0.028,0.023 c 0.808,-0.886 1.643,-1.802 2.487,-2.729 z"
               id="path3938"
               inkscape:connector-curvature="0"
               style="fill:#ffffff" /><path
               d="m 395.469,422.487 c 1.281,-1.012 2.617,-2.065 3.925,-3.1 l 12.702,-11.762 0.178,1.481 3.431,-5.405 -5.63,3.044 1.463,0.279 -12.742,11.815 c -1.149,1.26 -2.27,2.49 -3.327,3.648 z"
               id="path3940"
               inkscape:connector-curvature="0"
               style="fill:#ffffff" /><path
               d="m 409.578,419.721 -17.886,8.959 c -0.315,0.251 -0.567,0.447 -0.724,0.572 0.127,0.103 0.232,0.214 0.309,0.337 0.035,0.058 0.062,0.11 0.092,0.164 l 18.576,-9.3 -0.248,1.472 4.816,-4.219 -6.262,1.335 1.327,0.68 z"
               id="path3942"
               inkscape:connector-curvature="0"
               style="fill:#ffffff" /><path
               d="m 382.547,438.669 c -0.268,-0.088 -0.502,-0.225 -0.702,-0.408 l -3.202,6.64 0.016,0.008 -1.171,0.396 -3.79,7.26 1.835,-0.559 0.667,1.799 3.588,-7.36 -0.422,-1.187 3.181,-6.589 z"
               id="path3944"
               inkscape:connector-curvature="0"
               style="fill:#ffffff" /><path
               d="m 395.016,426.059 c 1.227,-0.615 2.644,-1.325 4.084,-2.046 l 11.893,-7.771 -0.078,1.491 4.302,-4.743 -6.065,2.044 1.395,0.522 -12.941,8.46 c -0.917,0.721 -1.79,1.409 -2.59,2.043 z"
               id="path3946"
               inkscape:connector-curvature="0"
               style="fill:#ffffff" /><path
               d="m 381.088,436.894 c -0.091,-0.353 -0.123,-0.721 -0.095,-1.087 l -4.249,4.633 -1.25,0.104 -0.105,0.107 -0.001,0.002 -5.911,5.912 0.277,-0.014 -0.021,0.022 0.072,-0.024 1.458,-0.071 0.257,1.448 4.898,-6.438 0.944,-0.202 3.726,-4.392 z"
               id="path3948"
               inkscape:connector-curvature="0"
               style="fill:#ffffff" /><path
               d="m 388.922,427.659 c 0.523,-0.412 1.268,-1.002 2.168,-1.711 l 20.875,-22.827 0.295,1.464 2.988,-5.663 -5.368,3.484 1.48,0.161 -21.854,23.909 c -0.211,0.426 -0.404,0.821 -0.584,1.183 z"
               id="path3950"
               inkscape:connector-curvature="0"
               style="fill:#ffffff" /><path
               d="m 370.24,443.264 7.777,-5.479 c 0.892,-0.973 1.866,-2.034 2.212,-2.413 l -9.721,6.416 0.011,0.016 -1.212,-0.253 -0.71,0.443 -6.24,3.893 1.752,0.364 0.211,1.315 5.033,-4.344 0.887,0.042 z"
               id="path3952"
               inkscape:connector-curvature="0"
               style="fill:#ffffff" /><path
               d="m 363.791,443.983 3.117,-1.943 2.907,-1.981 0.987,0.19 c 0,0 7.084,-4.365 8.816,-5.498 0.086,-0.058 0.139,-0.092 0.139,-0.092 l 0.002,0 c 0.018,-0.012 0.037,-0.023 0.055,-0.035 l -9.304,4.641 -1.177,-0.368 -7.4,3.51 1.666,0.61 0.192,0.966 z"
               id="path3954"
               inkscape:connector-curvature="0"
               style="fill:#ffffff" /></g><g
             id="g3956"><path
               d="m 398.871,401.023 1.467,-0.257 -13.369,27.079 c 0.107,0.056 0.203,0.108 0.279,0.152 0.158,0.091 0.285,0.206 0.389,0.333 l 13.436,-27.2 0.689,1.325 1.301,-6.271 -4.192,4.839 z"
               id="path3958"
               inkscape:connector-curvature="0"
               style="fill:#ffffff" /></g><path
             d="m 400.477,405.59 1.487,-0.075 -8.397,12.742 c -0.984,1.992 -1.939,3.928 -2.78,5.631 0.044,-0.049 0.087,-0.097 0.132,-0.146 l 11.73,-17.775 0.522,1.398 2.056,-6.065 -4.75,4.29 z"
             id="path3960"
             inkscape:connector-curvature="0"
             style="fill:#ffffff" /></g><path
           d="m 277.469,421.638 c 0.19,0.02 0.146,0.006 -0.069,-0.065 -2.232,-1.246 -3.812,-1.672 -6.881,-1.26 2.883,0.217 4.904,0.608 6.95,1.325 z"
           id="path3962"
           inkscape:connector-curvature="0"
           style="fill:#ffffff" /><path
           d="m 278.845,437.347 c 0.332,-2.141 1.747,-4.697 3.832,-6.417 1.458,-1.206 2.283,-1.65 1.069,-0.374 -1.852,1.934 -3.996,5.068 -4.901,6.791 z"
           id="path3964"
           inkscape:connector-curvature="0"
           style="fill:#ffffff" /><path
           d="m 283.406,443.185 c -0.8,-2.015 -0.104,-5.247 0.766,-7.362 0.603,-1.46 2.098,-3.681 2.564,-3.893 -1.658,2.551 -3.421,9.311 -3.33,11.255 z"
           id="path3966"
           inkscape:connector-curvature="0"
           style="fill:#ffffff" /><path
           d="m 276.716,415.083 c -0.154,-0.758 -0.896,-1.253 -1.659,-1.099 -0.765,0.152 -1.256,0.896 -1.1,1.659 0.151,0.763 0.896,1.256 1.658,1.102 0.761,-0.152 1.257,-0.895 1.101,-1.662 z"
           id="path3968"
           inkscape:connector-curvature="0"
           style="fill:#ffffff" /><path
           d="m 288.969,417.021 c 0.049,-2.109 -0.272,-4.282 -0.025,-6.738 -4.199,3.061 -5.629,8.428 -3.893,12.176 -0.172,-0.032 -0.353,-0.034 -0.536,0.002 -0.789,0.16 -1.299,0.929 -1.14,1.719 0.157,0.793 0.93,1.298 1.716,1.14 0.792,-0.163 1.302,-0.932 1.143,-1.714 -0.082,-0.402 -0.318,-0.729 -0.634,-0.935 -0.7,-3.318 -0.122,-7.46 1.618,-9.209 -0.545,2.078 -1.531,6.428 -0.89,10.44 0.684,-0.78 1.194,-1.541 1.576,-2.289 0.076,0.632 0.234,1.289 0.497,1.973 0.09,-3.191 1.162,-6.354 4.472,-8.555 -2.429,3.078 -3.821,6.677 -4.111,9.383 1.767,-2.244 5.779,-2.908 6.063,-11.681 -2.028,0.612 -4.465,2.095 -5.856,4.288 z"
           id="path3970"
           inkscape:connector-curvature="0"
           style="fill:#ffffff" /><path
           d="m 291.74,426.039 c -0.168,-0.832 -0.971,-1.366 -1.797,-1.202 -0.827,0.172 -1.361,0.973 -1.192,1.805 0.165,0.821 0.969,1.354 1.794,1.19 0.829,-0.171 1.359,-0.975 1.195,-1.793 z"
           id="path3972"
           inkscape:connector-curvature="0"
           style="fill:#ffffff" /><path
           d="m 291.208,430.658 c -0.167,-0.83 -0.971,-1.364 -1.795,-1.2 -0.824,0.168 -1.363,0.971 -1.191,1.801 0.163,0.821 0.966,1.36 1.794,1.192 0.83,-0.167 1.36,-0.972 1.192,-1.793 z"
           id="path3974"
           inkscape:connector-curvature="0"
           style="fill:#ffffff" /><path
           d="m 282.366,408.139 c -3.089,2.591 -3.958,5.844 -3.629,8.693 -0.119,-0.012 -0.241,-0.014 -0.364,0.013 -0.642,0.13 -1.059,0.756 -0.927,1.393 0.129,0.644 0.754,1.06 1.394,0.927 0.146,-0.028 0.278,-0.085 0.397,-0.161 0.291,0.832 0.677,1.593 1.128,2.245 -0.275,-0.965 -0.48,-2.026 -0.584,-3.112 0.014,-0.119 0.015,-0.239 -0.011,-0.364 -0.005,-0.028 -0.017,-0.052 -0.024,-0.079 -0.165,-2.433 0.213,-4.94 1.56,-6.745 -0.424,2.646 -1.045,7.771 -0.452,10.948 0.904,-3.385 5.782,-4.88 1.512,-13.758 z"
           id="path3976"
           inkscape:connector-curvature="0"
           style="fill:#ffffff" /><path
           d="m 294.77,428.105 c -0.128,-0.639 -0.755,-1.057 -1.399,-0.93 -0.641,0.131 -1.056,0.759 -0.93,1.4 0.131,0.642 0.757,1.06 1.399,0.93 0.645,-0.134 1.057,-0.76 0.93,-1.4 z"
           id="path3978"
           inkscape:connector-curvature="0"
           style="fill:#ffffff" /><path
           d="m 288.208,427.881 c -0.116,-0.59 -0.69,-0.97 -1.282,-0.85 -0.592,0.119 -0.973,0.693 -0.855,1.282 0.116,0.594 0.695,0.979 1.285,0.855 0.593,-0.116 0.972,-0.69 0.852,-1.287 z"
           id="path3980"
           inkscape:connector-curvature="0"
           style="fill:#ffffff" /><path
           d="m 273.258,412.843 c -0.083,-0.491 -0.508,-0.838 -0.988,-0.842 -1.532,-2.067 -3.739,-4.29 -7.421,-4.679 2.016,0.957 5.049,2.817 7.153,4.715 -0.5,0.133 -0.83,0.626 -0.74,1.145 0.096,0.553 0.616,0.921 1.169,0.83 0.548,-0.093 0.919,-0.62 0.827,-1.169 z"
           id="path3982"
           inkscape:connector-curvature="0"
           style="fill:#ffffff" /><path
           d="m 273.302,405.867 c -0.14,-0.695 -0.813,-1.142 -1.509,-1.001 -0.031,0.006 -0.058,0.019 -0.087,0.026 -0.836,-3.261 -1.644,-5.804 -5.348,-8.348 1.86,2.377 4.004,5.838 5.202,8.393 -0.557,0.227 -0.894,0.822 -0.769,1.437 0.142,0.691 0.816,1.141 1.509,1.002 0.692,-0.143 1.14,-0.817 1.002,-1.509 z"
           id="path3984"
           inkscape:connector-curvature="0"
           style="fill:#ffffff" /><path
           d="m 277.058,418.687 c -0.092,-0.549 -0.613,-0.919 -1.166,-0.822 -0.268,0.046 -0.49,0.194 -0.64,0.395 -3.279,-2.893 -5.533,-2.91 -7.262,-2.989 1.043,0.374 4.795,1.448 7.174,3.132 -0.097,0.187 -0.14,0.404 -0.102,0.626 0.095,0.557 0.619,0.925 1.17,0.834 0.551,-0.099 0.922,-0.62 0.826,-1.176 z"
           id="path3986"
           inkscape:connector-curvature="0"
           style="fill:#ffffff" /><path
           d="m 279.813,422.782 c -0.161,-0.79 -0.929,-1.299 -1.72,-1.145 -0.786,0.16 -1.297,0.929 -1.14,1.718 0.159,0.794 0.932,1.301 1.718,1.141 0.792,-0.158 1.303,-0.931 1.142,-1.714 z"
           id="path3988"
           inkscape:connector-curvature="0"
           style="fill:#ffffff" /><path
           d="m 281.932,425.29 c -0.095,-0.551 -0.615,-0.917 -1.17,-0.823 -0.345,0.055 -0.618,0.283 -0.752,0.58 -2.851,-0.374 -5.955,0.02 -8.562,1.476 2.93,-0.678 5.989,-1.304 8.497,-1.313 0.003,0 0.006,-0.002 0.009,-0.002 -0.036,0.135 -0.046,0.279 -0.022,0.424 0.096,0.549 0.621,0.923 1.172,0.826 0.552,-0.09 0.92,-0.619 0.828,-1.168 z"
           id="path3990"
           inkscape:connector-curvature="0"
           style="fill:#ffffff" /><path
           d="m 284.868,427 c -0.146,-0.709 -0.841,-1.175 -1.557,-1.034 -0.707,0.145 -1.167,0.836 -1.031,1.545 -0.03,-0.002 -0.056,-0.006 -0.093,-0.008 -2.11,-0.083 -5.627,0.478 -7.784,3.03 2.213,-1.305 5.728,-2.645 7.841,-2.93 0.021,0.002 0.041,0 0.061,0 0.18,0.664 0.845,1.09 1.531,0.951 0.711,-0.146 1.171,-0.841 1.032,-1.554 z"
           id="path3992"
           inkscape:connector-curvature="0"
           style="fill:#ffffff" /><g
           id="g3994"><g
             id="g3996"><path
               d="m 434.934,351.54 c 3.443,-1.511 7.389,-0.818 8.393,1.462 1.004,2.306 -1.158,5.676 -4.603,7.183 -3.466,1.52 -7.418,0.832 -8.428,-1.472 -0.997,-2.283 1.165,-5.651 4.638,-7.173 z m 5.197,11.862 c 4.357,-1.91 6.329,-6.772 4.492,-10.97 -1.842,-4.198 -6.746,-6.02 -11.101,-4.109 -4.358,1.909 -6.367,6.762 -4.527,10.958 1.843,4.198 6.779,6.033 11.136,4.121 z"
               id="path3998"
               inkscape:connector-curvature="0"
               style="fill:#00578e" /><path
               d="m 434.043,374.757 -1.666,-6.567 1.016,-0.259 0.463,1.835 13.906,-3.527 -0.464,-1.836 1.013,-0.257 2.527,9.948 0.673,-0.176 0.333,1.307 -3.839,0.974 -0.327,-1.28 1.739,-0.44 -1.274,-5.021 -5.699,1.445 0.984,3.863 1.642,-0.415 0.352,1.297 -4.753,1.205 -0.356,-1.298 1.69,-0.428 -0.979,-3.861 -6.376,1.619 0.408,1.614 -1.013,0.258 z"
               id="path4000"
               inkscape:connector-curvature="0"
               style="fill:#00578e" /></g><g
             id="g4002"><path
               d="m 239.593,357.13 -0.599,2.002 8.977,2.676 c 2.695,0.805 4.112,2.243 4.463,4.556 0.164,1.19 0.08,2.438 -0.292,3.683 -1.154,3.864 -4.025,5.738 -7.318,4.757 l -9.646,-2.874 -0.54,1.813 -1.003,-0.298 1.996,-6.685 1.002,0.299 -0.535,1.792 8.902,2.653 c 2.414,0.718 3.638,0.616 4.646,-0.408 0.455,-0.489 0.829,-1.132 1.043,-1.849 0.855,-2.863 -0.344,-5.037 -3.257,-5.91 l -8.877,-2.646 -0.59,1.982 -1.028,-0.306 1.651,-5.537 1.005,0.3 z"
               id="path4004"
               inkscape:connector-curvature="0"
               style="fill:#00578e" /><path
               d="m 255.369,361.009 c -0.355,0.848 -1.334,1.246 -2.185,0.891 -0.849,-0.356 -1.25,-1.334 -0.892,-2.183 0.355,-0.852 1.334,-1.252 2.183,-0.894 0.849,0.355 1.25,1.332 0.894,2.186 z"
               id="path4006"
               inkscape:connector-curvature="0"
               style="fill:#00578e" /><path
               d="m 258.474,353.899 -0.672,1.195 -3.906,-2.198 0.672,-1.196 1.605,0.904 c 1.333,-0.537 2.029,-1.117 2.628,-2.18 0.756,-1.346 0.5,-2.774 -0.627,-3.41 -0.976,-0.549 -2.024,-0.309 -4.463,0.978 -2.542,1.37 -2.908,1.507 -3.875,1.704 -0.937,0.189 -1.963,-0.017 -2.916,-0.551 -2.392,-1.344 -2.987,-3.994 -1.496,-6.644 0.476,-0.847 0.986,-1.447 1.794,-2.076 l -0.649,-0.367 0.659,-1.171 3.711,2.087 -0.66,1.172 -1.498,-0.841 c -1.099,0.583 -1.645,1.045 -2.097,1.849 -0.634,1.129 -0.32,2.449 0.7,3.022 0.871,0.49 1.692,0.295 4.19,-1.045 1.212,-0.631 1.955,-1.043 2.265,-1.184 0.629,-0.305 1.36,-0.489 2.156,-0.53 0.904,-0.035 1.729,0.174 2.578,0.649 2.474,1.394 3.195,4.169 1.77,6.712 -0.708,1.257 -1.482,2.025 -2.63,2.691 l 0.761,0.43 z"
               id="path4008"
               inkscape:connector-curvature="0"
               style="fill:#00578e" /><path
               d="m 265.001,342.618 c 0,0.909 -0.72,1.633 -1.627,1.633 -0.906,0 -1.627,-0.724 -1.627,-1.633 0,-0.906 0.721,-1.627 1.627,-1.627 0.907,0 1.627,0.721 1.627,1.627 z"
               id="path4010"
               inkscape:connector-curvature="0"
               style="fill:#00578e" /></g><g
             id="g4012"><path
               d="M 303.542,310.583 293,316.01 l -0.479,-0.933 1.682,-0.864 -6.567,-12.758 -1.683,0.868 -0.479,-0.933 9.122,-4.695 -0.314,-0.619 1.194,-0.617 1.812,3.521 -1.173,0.605 -0.821,-1.597 -4.606,2.371 2.69,5.229 3.541,-1.825 -0.776,-1.504 1.188,-0.64 2.247,4.362 -1.186,0.639 -0.799,-1.551 -3.544,1.824 2.819,5.471 4.805,-2.476 -0.845,-1.64 1.194,-0.613 1.52,2.948 z"
               id="path4014"
               inkscape:connector-curvature="0"
               style="fill:#00578e" /><path
               d="m 313.685,306.918 -6.856,2.272 -0.332,-0.995 1.799,-0.594 -4.515,-13.619 -1.797,0.595 -0.326,-0.992 7.163,-2.376 c 2.929,-0.972 5.436,0.168 6.335,2.888 0.854,2.575 -0.711,5.457 -3.478,6.374 -0.401,0.133 -0.671,0.194 -1.323,0.282 l -0.385,-1.158 c 0.332,-0.032 0.452,-0.072 0.664,-0.143 1.607,-0.533 2.119,-1.989 1.42,-4.092 -0.732,-2.224 -1.992,-3.093 -3.696,-2.529 l -1.418,0.472 4.406,13.287 2.01,-0.666 0.329,0.994 z"
               id="path4016"
               inkscape:connector-curvature="0"
               style="fill:#00578e" /><path
               d="m 321.807,297.849 1.416,-6.566 3.395,5.731 -4.811,0.835 z m 12.117,3.535 -1.03,0.179 -8.81,-14.624 -1.498,0.259 -3.607,16.78 -1.524,0.263 0.18,1.03 5.079,-0.88 -0.178,-1.03 -1.961,0.342 0.903,-4.254 5.964,-1.035 2.211,3.711 -1.717,0.297 0.176,1.031 5.99,-1.037 -0.178,-1.032 z"
               id="path4018"
               inkscape:connector-curvature="0"
               style="fill:#00578e" /><path
               d="m 341.019,287.393 1.571,0.003 c 1.771,0.006 2.791,1.153 2.783,3.146 -0.002,1.967 -1.18,3.335 -2.895,3.332 l -1.473,-0.007 0.014,-6.474 z m 10.109,13.999 -1.022,-0.002 c -0.498,-10e-4 -0.799,-0.227 -1.368,-1.1 l -3.524,-5.439 c 2.345,-0.718 3.49,-2.157 3.496,-4.4 0.004,-1.321 -0.391,-2.392 -1.21,-3.216 -0.894,-0.898 -2.091,-1.226 -4.231,-1.23 l -7.349,-0.019 0,1.046 1.892,0.004 -0.033,14.349 -1.895,-0.006 -0.004,1.047 6.977,0.017 0,-1.047 -1.869,-0.003 0.015,-6.276 0.675,0.002 3.72,5.862 c 0.846,1.322 1.095,1.471 2.563,1.476 l 3.163,0.006 0.004,-1.071 z"
               id="path4020"
               inkscape:connector-curvature="0"
               style="fill:#00578e" /><path
               d="m 362.397,304.438 -7.91,-1.337 0.175,-1.031 2.379,0.402 2.323,-13.729 -4.251,-0.718 -0.344,2.039 -1.35,-0.228 0.703,-4.176 1.357,0.229 -0.119,0.688 11.64,1.969 0.119,-0.688 1.347,0.228 -0.706,4.176 -1.35,-0.229 0.346,-2.037 -4.224,-0.714 -2.319,13.728 2.355,0.398 -0.171,1.03 z"
               id="path4022"
               inkscape:connector-curvature="0"
               style="fill:#00578e" /><path
               d="m 385.671,312.302 -6.896,-2.676 0.375,-0.975 1.951,0.758 3.891,-10.034 -9.467,9.26 -1.318,-13.202 -3.811,9.824 1.953,0.756 -0.379,0.975 -5.365,-2.08 0.377,-0.976 1.949,0.758 5.19,-13.377 -1.951,-0.756 0.376,-0.978 4.112,1.596 1.318,12.933 9.041,-8.915 4.596,1.783 -0.38,0.974 -1.945,-0.756 -5.188,13.374 1.949,0.758 -0.378,0.976 z"
               id="path4024"
               inkscape:connector-curvature="0"
               style="fill:#00578e" /><path
               d="m 397.8,320.231 -9.995,-6.381 0.564,-0.884 1.596,1.021 7.725,-12.093 -1.597,-1.019 0.562,-0.88 8.65,5.522 0.371,-0.587 1.137,0.724 -2.131,3.338 -1.115,-0.712 0.969,-1.511 -4.366,-2.789 -3.163,4.955 3.354,2.146 0.916,-1.43 1.147,0.704 -2.645,4.136 -1.146,-0.703 0.938,-1.469 -3.361,-2.145 -3.309,5.183 4.555,2.91 0.992,-1.553 1.135,0.725 -1.783,2.792 z"
               id="path4026"
               inkscape:connector-curvature="0"
               style="fill:#00578e" /><path
               d="m 287.313,310.042 c -2.725,-3.714 -7.802,-4.435 -11.594,-1.649 l -6.263,4.602 0.617,0.844 1.525,-1.122 8.478,11.54 c 0.405,0.156 0.803,0.306 1.198,0.455 l 4.155,-3.054 c 1.969,-1.445 2.997,-3.034 3.373,-5.169 0.394,-2.326 -0.134,-4.599 -1.489,-6.447 z m -3.196,10.879 -1.626,1.195 -8.097,-11.021 1.706,-1.253 c 2.35,-1.727 6.216,-0.671 8.385,2.279 2.315,3.153 2.164,6.942 -0.368,8.8 z"
               id="path4028"
               inkscape:connector-curvature="0"
               style="fill:#00578e" /><path
               d="m 419.012,316.819 -0.705,0.776 1.454,1.325 -7.032,7.712 1.774,-13.924 -3.661,-3.339 -0.703,0.772 1.324,1.207 -0.271,1.477 -8.811,9.661 -1.525,-1.393 -0.706,0.772 4.159,3.794 0.703,-0.775 -1.451,-1.325 7.334,-8.04 -1.566,12.773 c 1.518,-0.395 3.142,-0.83 4.9,-1.321 0.145,-0.039 0.279,-0.08 0.422,-0.118 l 6.268,-6.877 1.55,1.408 0.708,-0.771 -4.165,-3.794 z"
               id="path4030"
               inkscape:connector-curvature="0"
               style="fill:#00578e" /><path
               d="m 435.778,334.931 -0.554,0.423 -7.164,-9.382 0.553,-0.423 -0.835,-1.091 -3.364,2.57 0.834,1.09 1.642,-1.254 2.614,3.424 -11.063,8.452 -0.571,-0.749 c -0.317,0.177 -0.641,0.335 -0.962,0.469 l 4.104,5.367 0.833,-0.633 -1.453,-1.901 11.064,-8.452 2.598,3.404 -1.643,1.256 0.836,1.089 3.362,-2.571 -0.831,-1.088 z"
               id="path4032"
               inkscape:connector-curvature="0"
               style="fill:#00578e" /></g><g
             id="g4034"><path
               d="m 362.955,505.961 -1.336,0.293 -0.965,-4.378 1.344,-0.295 0.394,1.801 c 1.286,0.632 2.18,0.772 3.374,0.509 1.509,-0.329 2.406,-1.468 2.131,-2.735 -0.24,-1.096 -1.119,-1.72 -3.702,-2.685 -2.713,-0.988 -3.06,-1.164 -3.852,-1.757 -0.766,-0.574 -1.294,-1.476 -1.526,-2.543 -0.59,-2.678 0.996,-4.889 3.965,-5.54 0.947,-0.206 1.736,-0.224 2.744,-0.042 l -0.16,-0.727 1.313,-0.287 0.914,4.161 -1.314,0.287 -0.369,-1.678 c -1.168,-0.434 -1.873,-0.534 -2.773,-0.339 -1.266,0.277 -2.047,1.393 -1.792,2.538 0.215,0.971 0.906,1.458 3.566,2.43 1.28,0.487 2.082,0.767 2.391,0.903 0.644,0.266 1.274,0.689 1.831,1.258 0.629,0.656 1.021,1.409 1.23,2.361 0.605,2.77 -0.984,5.16 -3.837,5.782 -1.408,0.309 -2.493,0.241 -3.755,-0.173 l 0.184,0.856 z"
               id="path4036"
               inkscape:connector-curvature="0"
               style="fill:#00578e" /><path
               d="m 388.278,497.996 -11.034,4.334 -0.381,-0.973 1.759,-0.691 -5.242,-13.358 -1.764,0.695 -0.382,-0.974 9.557,-3.754 -0.26,-0.649 1.254,-0.493 1.448,3.69 -1.229,0.483 -0.652,-1.67 -4.827,1.896 2.149,5.468 3.708,-1.456 -0.617,-1.576 1.245,-0.516 1.791,4.568 -1.24,0.515 -0.637,-1.622 -3.715,1.456 2.248,5.726 5.035,-1.973 -0.678,-1.717 1.254,-0.489 1.21,3.08 z"
               id="path4038"
               inkscape:connector-curvature="0"
               style="fill:#00578e" /><path
               d="m 404.881,487.886 c -1.408,1.759 -2.395,2.68 -4.016,3.66 -4.493,2.726 -9.525,1.637 -12.096,-2.599 -2.544,-4.196 -1.246,-9.267 3.039,-11.861 1.379,-0.84 2.451,-1.23 4.013,-1.444 l -0.542,-0.896 1.17,-0.713 2.313,3.813 -1.171,0.713 -0.826,-1.365 c -1.732,-0.118 -2.557,0.063 -3.688,0.747 -2.957,1.799 -3.523,5.519 -1.383,9.054 2.096,3.452 5.998,4.755 8.94,2.971 1.066,-0.646 1.689,-1.345 2.314,-2.569 l -0.98,-1.617 1.193,-0.723 1.72,2.829 z"
               id="path4040"
               inkscape:connector-curvature="0"
               style="fill:#00578e" /><path
               d="m 412.373,462.177 -1.545,1.41 6.314,6.921 c 1.898,2.079 2.369,4.04 1.479,6.201 -0.476,1.107 -1.191,2.136 -2.146,3.003 -2.979,2.726 -6.407,2.849 -8.728,0.31 l -6.783,-7.435 -1.396,1.276 -0.703,-0.771 5.148,-4.703 0.705,0.772 -1.383,1.258 6.266,6.868 c 1.697,1.855 2.802,2.4 4.192,2.044 0.644,-0.187 1.296,-0.543 1.847,-1.048 2.207,-2.015 2.303,-4.496 0.256,-6.742 l -6.246,-6.846 -1.53,1.396 -0.722,-0.795 4.27,-3.894 0.705,0.775 z"
               id="path4042"
               inkscape:connector-curvature="0"
               style="fill:#00578e" /><path
               d="m 440.35,447.649 -3.326,6.133 -0.918,-0.5 0.902,-1.667 -12.613,-6.832 -0.906,1.664 -0.914,-0.501 3.318,-6.133 0.918,0.501 -0.89,1.643 12.616,6.835 0.893,-1.64 0.92,0.497 z"
               id="path4044"
               inkscape:connector-curvature="0"
               style="fill:#00578e" /><path
               d="m 446.711,432.74 -2.824,7.505 -0.977,-0.368 0.85,-2.26 -13.029,-4.907 -1.521,4.033 1.936,0.727 -0.48,1.284 -3.965,-1.494 0.481,-1.281 0.653,0.246 4.161,-11.049 -0.653,-0.246 0.482,-1.281 3.967,1.491 -0.484,1.282 -1.934,-0.728 -1.51,4.009 13.029,4.907 0.838,-2.236 0.98,0.366 z"
               id="path4046"
               inkscape:connector-curvature="0"
               style="fill:#00578e" /><path
               d="m 451.125,414.414 -1.338,6.846 -1.029,-0.2 0.36,-1.836 -6.747,-1.319 -8.281,3.411 -0.301,1.539 -1.025,-0.202 1.334,-6.844 1.03,0.202 -0.355,1.807 6.032,-2.423 -4.721,-4.299 -0.404,2.076 -1.023,-0.2 1.112,-5.694 1.022,0.202 -0.34,1.759 5.898,5.388 7.383,1.446 0.364,-1.858 1.029,0.199 z"
               id="path4048"
               inkscape:connector-curvature="0"
               style="fill:#00578e" /><path
               d="m 434.353,456.626 -0.609,0.822 c -0.297,0.398 -0.653,0.507 -1.699,0.445 l -6.47,-0.399 c 0.819,-2.308 0.34,-4.091 -1.457,-5.428 -1.061,-0.788 -2.158,-1.105 -3.309,-0.937 -1.256,0.186 -2.229,0.952 -3.506,2.674 l -4.377,5.898 0.834,0.624 1.133,-1.52 11.521,8.554 -1.131,1.519 0.84,0.624 4.16,-5.598 -0.842,-0.624 -1.111,1.5 -5.041,-3.746 0.4,-0.536 6.926,0.489 c 1.564,0.106 1.832,-0.006 2.712,-1.185 l 1.889,-2.54 -0.863,-0.636 z m -17.263,-0.189 0.932,-1.26 c 1.057,-1.423 2.588,-1.56 4.186,-0.371 1.576,1.175 1.979,2.928 0.959,4.311 l -0.877,1.179 -5.2,-3.859 z"
               id="path4050"
               inkscape:connector-curvature="0"
               style="fill:#00578e" /></g><g
             id="g4052"><path
               d="m 236.968,429.822 -1.656,-6.773 1.016,-0.25 0.444,1.816 6.364,-1.555 -1.922,-7.865 -6.365,1.555 0.445,1.814 -1.016,0.248 -1.656,-6.773 1.018,-0.25 0.447,1.843 13.939,-3.408 -0.448,-1.841 1.015,-0.245 1.655,6.771 -1.016,0.248 -0.442,-1.813 -6.147,1.502 1.922,7.862 6.147,-1.501 -0.445,-1.813 1.019,-0.252 1.655,6.777 -1.019,0.248 -0.446,-1.838 -13.94,3.406 0.454,1.842 -1.022,0.245 z"
               id="path4054"
               inkscape:connector-curvature="0"
               style="fill:#00578e" /><path
               d="m 246.462,433.613 c 3.423,-1.561 7.377,-0.924 8.412,1.342 1.042,2.291 -1.074,5.69 -4.5,7.254 -3.445,1.566 -7.4,0.929 -8.444,-1.355 -1.03,-2.272 1.084,-5.666 4.532,-7.241 z m 5.371,11.787 c 4.327,-1.971 6.233,-6.863 4.333,-11.031 -1.9,-4.171 -6.833,-5.922 -11.16,-3.949 -4.329,1.973 -6.269,6.852 -4.366,11.022 1.897,4.169 6.862,5.935 11.193,3.958 z"
               id="path4056"
               inkscape:connector-curvature="0"
               style="fill:#00578e" /><path
               d="m 258.163,469.063 -4.347,-5.988 0.847,-0.611 1.23,1.691 8.708,-6.319 -12.975,2.644 6.044,-11.805 -8.525,6.188 1.231,1.693 -0.847,0.618 -3.381,-4.657 0.846,-0.614 1.232,1.689 11.606,-8.429 -1.226,-1.69 0.845,-0.617 2.589,3.565 -5.902,11.586 12.431,-2.599 2.899,3.995 -0.847,0.616 -1.229,-1.694 -11.613,8.43 1.233,1.697 -0.849,0.611 z"
               id="path4058"
               inkscape:connector-curvature="0"
               style="fill:#00578e" /><path
               d="m 271.119,481.803 -8.72,-8.032 0.71,-0.771 1.394,1.282 9.724,-10.549 -1.393,-1.282 0.707,-0.771 7.551,6.956 0.47,-0.515 0.993,0.913 -2.686,2.911 -0.969,-0.893 1.212,-1.319 -3.81,-3.513 -3.982,4.321 2.93,2.703 1.148,-1.246 1.004,0.889 -3.327,3.613 -1.007,-0.89 1.183,-1.288 -2.931,-2.699 -4.168,4.523 3.974,3.664 1.249,-1.355 0.989,0.91 -2.245,2.438 z"
               id="path4060"
               inkscape:connector-curvature="0"
               style="fill:#00578e" /><path
               d="m 285.952,491.977 -9.757,-6.563 0.586,-0.873 1.573,1.063 8.008,-11.908 -1.573,-1.058 0.585,-0.866 5.787,3.893 -0.583,0.869 -1.551,-1.042 -7.774,11.555 4.402,2.962 1.032,-1.533 1.114,0.754 -1.849,2.747 z"
               id="path4062"
               inkscape:connector-curvature="0"
               style="fill:#00578e" /><path
               d="m 295.89,489.855 4.873,-4.625 -0.428,6.648 -4.445,-2.023 z m 8.017,9.754 -0.953,-0.436 0.971,-17.045 -1.384,-0.629 -12.443,11.824 -1.403,-0.641 -0.434,0.953 4.691,2.137 0.433,-0.955 -1.814,-0.824 3.145,-3.002 5.512,2.506 -0.267,4.314 -1.586,-0.719 -0.433,0.947 5.528,2.518 0.437,-0.948 z"
               id="path4064"
               inkscape:connector-curvature="0"
               style="fill:#00578e" /><path
               d="m 321.142,505.486 -1.695,-0.408 -5.591,-13.891 -2.532,10.586 1.914,0.459 -0.243,1.02 -5.476,-1.313 0.243,-1.018 2.013,0.48 3.045,-12.715 -0.482,-1.424 -1.743,-0.415 0.244,-1.021 4.823,1.156 5.172,13.045 2.433,-10.15 -1.916,-0.457 0.247,-1.018 5.474,1.311 -0.245,1.016 -2.035,-0.486 -3.65,15.243 z"
               id="path4066"
               inkscape:connector-curvature="0"
               style="fill:#00578e" /><path
               d="m 337.312,490.287 -7.765,-0.279 -0.041,1.045 1.893,0.067 -0.513,14.337 -0.004,0 -1.894,-0.066 -0.036,1.049 7.74,0.277 -0.019,-0.004 0.022,0 c 2.44,0.089 4.233,-0.52 5.853,-1.96 1.752,-1.579 2.749,-3.688 2.834,-5.979 0.167,-4.602 -3.367,-8.318 -8.07,-8.487 z m 4.561,8.364 c -0.14,3.907 -2.609,6.784 -5.747,6.671 l -2.019,-0.072 0.49,-13.666 2.114,0.076 c 2.914,0.105 5.29,3.331 5.162,6.991 z"
               id="path4068"
               inkscape:connector-curvature="0"
               style="fill:#00578e" /></g></g></g><path
         d="m 279.485,401.119 c -4.756,2.082 -6.963,8.008 -4.529,12.357 2.227,-3.165 6.42,-3.853 4.529,-12.357 z m -4.513,12.129 c -0.572,-2.391 0.922,-8.758 3.055,-10.066 -1.383,3.088 -1.952,5.949 -3.055,10.066 z"
         id="path4070"
         inkscape:connector-curvature="0"
         style="fill:#ffffff" /><path
         d="m 274.649,392.219 c -1.523,0.623 -3.68,2.736 -4.646,5.523 0.375,0.434 0.693,0.893 0.969,1.365 0.535,-2.045 1.686,-4.418 2.848,-5.426 -0.762,1.299 -1.822,4.166 -2.344,6.43 0.537,1.256 0.773,2.568 0.732,3.809 2.908,-2.656 3.914,-7.258 2.441,-11.701 z"
         id="path4072"
         inkscape:connector-curvature="0"
         style="fill:#ffffff" /></g></g></svg>